<svg width="25" height="25" viewBox="0 0 25 25" fill="none" xmlns="http://www.w3.org/2000/svg">
<g clip-path="url(#clip0_433_1866)">
<rect width="25" height="25" rx="12.5" fill="white"/>
<path d="M16.9028 15.6238C16.9028 14.4718 17.8388 13.6318 18.9668 13.6318C20.0948 13.6318 21.0548 14.4718 21.0548 15.6238C21.0548 16.7998 20.0948 17.6398 18.9668 17.6398C17.8388 17.6398 16.9028 16.7998 16.9028 15.6238Z" fill="#16C47E"/>
<path d="M8.408 11.856C8.408 13.416 9.704 14.4 11.144 14.4C11.744 14.4 12.32 14.232 12.8 13.968C13.4 13.632 14.384 13.488 14.984 14.088C15.656 14.76 15.56 15.984 14.768 16.536C13.76 17.256 12.488 17.64 11.144 17.64C7.928 17.64 5 15.384 5 11.856V11.784C5 8.256 7.928 6 11.144 6C12.488 6 13.76 6.384 14.768 7.104C15.56 7.656 15.656 8.88 14.984 9.552C14.384 10.152 13.4 10.008 12.8 9.672C12.32 9.408 11.744 9.24 11.144 9.24C9.704 9.24 8.408 10.224 8.408 11.784V11.856Z" fill="#FF9C24"/>
</g>
<defs>
<clipPath id="clip0_433_1866">
<rect width="25" height="25" fill="white"/>
</clipPath>
</defs>
</svg>
