<svg width="17" height="13" viewBox="0 0 17 13" fill="none" xmlns="http://www.w3.org/2000/svg">
<path d="M4.272 6.432C4.272 7.992 5.568 8.976 7.008 8.976C7.608 8.976 8.184 8.808 8.664 8.544C9.264 8.208 10.248 8.064 10.848 8.664C11.52 9.336 11.424 10.56 10.632 11.112C9.624 11.832 8.352 12.216 7.008 12.216C3.792 12.216 0.864 9.96 0.864 6.432V6.36C0.864 2.832 3.792 0.576 7.008 0.576C8.352 0.576 9.624 0.96 10.632 1.68C11.424 2.232 11.52 3.456 10.848 4.128C10.248 4.728 9.264 4.584 8.664 4.248C8.184 3.984 7.608 3.816 7.008 3.816C5.568 3.816 4.272 4.8 4.272 6.36V6.432Z" fill="#FF9C24"/>
<path d="M12.7669 10.2C12.7669 9.048 13.7029 8.208 14.8309 8.208C15.9589 8.208 16.9189 9.048 16.9189 10.2C16.9189 11.376 15.9589 12.216 14.8309 12.216C13.7029 12.216 12.7669 11.376 12.7669 10.2Z" fill="#16C47E"/>
</svg>
