<svg width="150" height="19" viewBox="0 0 150 19" fill="none" xmlns="http://www.w3.org/2000/svg">
<path d="M4.272 12.432C4.272 13.992 5.568 14.976 7.008 14.976C7.608 14.976 8.184 14.808 8.664 14.544C9.264 14.208 10.248 14.064 10.848 14.664C11.52 15.336 11.424 16.56 10.632 17.112C9.624 17.832 8.352 18.216 7.008 18.216C3.792 18.216 0.864 15.96 0.864 12.432V12.36C0.864 8.832 3.792 6.576 7.008 6.576C8.352 6.576 9.624 6.96 10.632 7.68C11.424 8.232 11.52 9.456 10.848 10.128C10.248 10.728 9.264 10.584 8.664 10.248C8.184 9.984 7.608 9.816 7.008 9.816C5.568 9.816 4.272 10.8 4.272 12.36V12.432ZM18.3109 18.216C15.0469 18.216 12.4309 15.888 12.4309 12.36C12.4309 8.832 15.0469 6.576 18.3109 6.576C21.5749 6.576 24.2149 8.832 24.2149 12.36C24.2149 15.888 21.5749 18.216 18.3109 18.216ZM18.3109 14.976C19.7029 14.976 20.8549 13.896 20.8549 12.36C20.8549 10.848 19.7029 9.816 18.3109 9.816C16.9429 9.816 15.7909 10.848 15.7909 12.36C15.7909 13.896 16.9429 14.976 18.3109 14.976ZM43.6663 11.64V16.632C43.6663 17.472 42.8983 18.12 41.9863 18.12C41.0983 18.12 40.3303 17.448 40.3063 16.632V12.024C40.3063 10.56 39.4183 9.792 38.4343 9.792C37.3783 9.792 36.5383 10.44 36.5383 12.072V16.632C36.5383 17.472 35.7703 18.12 34.8583 18.12C33.9703 18.12 33.2023 17.448 33.1783 16.632V11.952C33.1783 10.536 32.2903 9.792 31.3303 9.792C30.3223 9.792 29.3863 10.368 29.3863 12.072V16.632C29.3863 17.472 28.6183 18.12 27.7063 18.12C26.8183 18.12 26.0503 17.448 26.0263 16.632V8.16C26.0503 7.344 26.8183 6.672 27.7063 6.672C28.6183 6.672 29.3863 7.32 29.3863 8.16V8.424C29.9143 7.248 31.1143 6.576 32.3143 6.576C34.0903 6.576 35.2663 7.152 36.0103 8.688C36.8263 6.912 38.4823 6.552 39.2743 6.552C41.9383 6.552 43.6423 8.256 43.6663 11.64ZM63.5535 11.64V16.632C63.5535 17.472 62.7855 18.12 61.8735 18.12C60.9855 18.12 60.2175 17.448 60.1935 16.632V12.024C60.1935 10.56 59.3055 9.792 58.3215 9.792C57.2655 9.792 56.4255 10.44 56.4255 12.072V16.632C56.4255 17.472 55.6575 18.12 54.7455 18.12C53.8575 18.12 53.0895 17.448 53.0655 16.632V11.952C53.0655 10.536 52.1775 9.792 51.2175 9.792C50.2095 9.792 49.2735 10.368 49.2735 12.072V16.632C49.2735 17.472 48.5055 18.12 47.5935 18.12C46.7055 18.12 45.9375 17.448 45.9135 16.632V8.16C45.9375 7.344 46.7055 6.672 47.5935 6.672C48.5055 6.672 49.2735 7.32 49.2735 8.16V8.424C49.8015 7.248 51.0015 6.576 52.2015 6.576C53.9775 6.576 55.1535 7.152 55.8975 8.688C56.7135 6.912 58.3695 6.552 59.1615 6.552C61.8255 6.552 63.5295 8.256 63.5535 11.64ZM73.0967 16.632V16.368C72.4967 17.496 71.1767 18.216 69.8567 18.216C67.3367 18.216 65.7287 16.968 65.7287 13.776V8.16C65.7287 7.32 66.4967 6.672 67.4087 6.672C68.2967 6.672 69.0647 7.344 69.0887 8.16V12.768C69.0887 14.256 69.6407 14.976 71.0327 14.976C72.2087 14.976 73.0967 14.424 73.0967 12.72V8.16C73.0967 7.32 73.8647 6.672 74.7767 6.672C75.6647 6.672 76.4327 7.344 76.4567 8.16V16.632C76.4327 17.448 75.6647 18.12 74.7767 18.12C73.8647 18.12 73.0967 17.472 73.0967 16.632ZM82.1572 8.16V8.424C82.7572 7.296 84.0772 6.552 85.3972 6.552C87.9172 6.552 89.5252 8.112 89.5252 11.304V16.632C89.5252 17.472 88.7572 18.12 87.8452 18.12C86.9572 18.12 86.1892 17.448 86.1652 16.632V12.024C86.1652 10.536 85.3492 9.792 84.2212 9.792C83.0452 9.792 82.1572 10.368 82.1572 12.072V16.632C82.1572 17.472 81.3892 18.12 80.4772 18.12C79.5892 18.12 78.8212 17.448 78.7972 16.632V8.16C78.8212 7.344 79.5892 6.672 80.4772 6.672C81.3892 6.672 82.1572 7.32 82.1572 8.16ZM91.3858 2.64C91.3858 1.536 92.3458 0.696 93.4738 0.696C94.6018 0.696 95.5138 1.536 95.5138 2.64C95.5138 3.744 94.6018 4.608 93.4738 4.608C92.3458 4.608 91.3858 3.744 91.3858 2.64ZM95.1538 8.16V16.632C95.1538 17.472 94.3858 18.12 93.4738 18.12C92.5858 18.12 91.8178 17.448 91.7938 16.632V8.16C91.8178 7.344 92.5858 6.672 93.4738 6.672C94.3858 6.672 95.1538 7.32 95.1538 8.16Z" fill="#FF9C24"/>
<path d="M97.5733 6.792H98.4853V3.864C98.5093 3.048 99.2773 2.376 100.165 2.376C101.077 2.376 101.845 3.024 101.845 3.864V6.792H103.117C103.789 6.792 104.317 7.392 104.317 8.112C104.317 8.808 103.789 9.408 103.117 9.432H101.845V16.632C101.845 17.472 101.077 18.12 100.165 18.12C99.2773 18.12 98.5093 17.448 98.4853 16.632V9.432H97.5733C96.9013 9.408 96.3733 8.808 96.3733 8.112C96.3733 7.392 96.9013 6.792 97.5733 6.792ZM108.127 11.4H112.975C112.807 10.032 111.871 9.36 110.623 9.36C109.375 9.36 108.415 9.984 108.127 11.4ZM114.895 14.976C115.519 15.696 115.279 16.728 114.463 17.208C113.335 17.952 111.919 18.216 110.599 18.216C107.383 18.216 104.743 15.888 104.743 12.36C104.743 8.832 107.383 6.576 110.599 6.576C113.791 6.576 116.335 8.928 116.335 12.456C116.335 13.056 115.831 13.488 115.303 13.488H108.079C108.247 14.784 109.663 15.336 110.839 15.336C111.511 15.336 112.087 15.288 112.783 14.808C113.551 14.28 114.415 14.424 114.895 14.976ZM126.149 8.376V8.16C126.173 7.344 126.941 6.672 127.829 6.672C128.741 6.672 129.509 7.32 129.509 8.16V16.632C129.509 17.472 128.741 18.12 127.829 18.12C126.941 18.12 126.173 17.448 126.149 16.632V16.416C125.429 17.592 124.061 18.216 122.789 18.216C119.933 18.216 117.341 16.104 117.341 12.384C117.341 8.664 119.933 6.576 122.789 6.576C123.509 6.576 125.189 6.888 126.149 8.376ZM120.797 12.408C120.797 13.896 121.757 15.24 123.437 15.24C124.949 15.24 126.173 13.896 126.173 12.408C126.173 10.92 124.949 9.576 123.437 9.576C121.757 9.576 120.797 10.92 120.797 12.408ZM149.49 11.64V16.632C149.49 17.472 148.722 18.12 147.81 18.12C146.922 18.12 146.154 17.448 146.13 16.632V12.024C146.13 10.56 145.242 9.792 144.258 9.792C143.202 9.792 142.362 10.44 142.362 12.072V16.632C142.362 17.472 141.594 18.12 140.682 18.12C139.794 18.12 139.026 17.448 139.002 16.632V11.952C139.002 10.536 138.114 9.792 137.154 9.792C136.146 9.792 135.21 10.368 135.21 12.072V16.632C135.21 17.472 134.442 18.12 133.53 18.12C132.642 18.12 131.874 17.448 131.85 16.632V8.16C131.874 7.344 132.642 6.672 133.53 6.672C134.442 6.672 135.21 7.32 135.21 8.16V8.424C135.738 7.248 136.938 6.576 138.138 6.576C139.914 6.576 141.09 7.152 141.834 8.688C142.65 6.912 144.306 6.552 145.098 6.552C147.762 6.552 149.466 8.256 149.49 11.64Z" fill="#16C47E"/>
</svg>
